Exact Audio Copy V0.99 prebeta 1 from 25. May 2007

EAC 抓取日志文件从15. 五月 2011, 21:20

群星 / 流行歌坛名人3

使用驱动器  ：PIONEER DVD-RW  DVR-115   Adapter: 0  ID: 0

读取模式     : 保护
使用精确流   : 是
废除音频缓冲 : 是
使用 C2 指针 : 否

读取偏移校正                   : 48
读取 Lead-In 和 Lead-Out       : 否
用静音填充抓取中丢失偏移的采样 : 是
去除首尾静音块                 : 否
已用接口                       : Win NT 及 2000 本地 Win32 接口

所用输出格式 : 内部 WAV 函数
样本格式     : 44.100 Hz;16 Bit;立体声
使用压缩偏移 : 48


被抓轨 CD 的 TOC

     音轨 |   开始   |   长度   | 起始扇区 | 结尾扇区 
    --------------------------------------------------
       1  |  0:00.32 |  4:32.18 |      32  |   20449  
       2  |  4:32.50 |  4:07.02 |   20450  |   38976  
       3  |  8:39.52 |  4:25.58 |   38977  |   58909  
       4  | 13:05.35 |  4:41.07 |   58910  |   79991  
       5  | 17:46.42 |  3:46.70 |   79992  |   97011  
       6  | 21:33.37 |  3:35.73 |   97012  |  113209  
       7  | 25:09.35 |  3:20.07 |  113210  |  128216  
       8  | 28:29.42 |  4:16.60 |  128217  |  147476  
       9  | 32:46.27 |  5:33.40 |  147477  |  172491  
      10  | 38:19.67 |  5:10.38 |  172492  |  195779  
      11  | 43:30.30 |  4:08.10 |  195780  |  214389  
      12  | 47:38.40 |  4:14.67 |  214390  |  233506  
      13  | 51:53.32 |  6:01.00 |  233507  |  260581  
      14  | 57:54.32 |  5:24.65 |  260582  |  284946  


范围状态及错误

已选择范围

     文件名 E:\20世纪中华歌坛名人百集珍藏版-流行歌坛名人3[lwg188原创]\群星 - 流行歌坛名人3.wav

     峰值电平 100.0 %
     范围质量 100.0 %
     复制 CRC 535EDE39
     复制成功

没有错误发生

状态报告结尾
